<?xml version="1.0" standalone="no"?>
<!DOCTYPE svg PUBLIC "-//W3C//DTD SVG 20010904//EN"
 "http://www.w3.org/TR/2001/REC-SVG-20010904/DTD/svg10.dtd">
<svg version="1.0" xmlns="http://www.w3.org/2000/svg"
 width="600.000000pt" height="600.000000pt" viewBox="0 0 600.000000 600.000000"
 preserveAspectRatio="xMidYMid meet">
<metadata>
Created by potrace 1.11, written by Peter Selinger 2001-2013
</metadata>
<g transform="translate(0.000000,600.000000) scale(0.100000,-0.100000)"
fill="#000000" stroke="none">
<path d="M2628 4901 c4 -10 0 -13 -16 -9 -12 4 -22 2 -22 -3 0 -4 -8 -5 -17
-2 -12 5 -15 2 -11 -8 4 -11 -4 -14 -37 -14 -29 0 -41 -3 -38 -11 2 -7 0 -15
-6 -19 -6 -3 -11 0 -11 7 -1 7 -8 1 -16 -14 -8 -16 -17 -28 -20 -28 -3 0 -2 5
1 10 10 17 -7 11 -22 -7 -9 -11 -12 -12 -7 -3 4 9 3 12 -2 7 -5 -5 -9 -14 -9
-20 0 -7 -12 -11 -25 -10 -14 1 -19 -1 -12 -3 18 -8 15 -27 -4 -20 -8 3 -13 2
-10 -2 7 -12 -33 -44 -46 -36 -6 4 -8 3 -4 -4 3 -6 -1 -17 -9 -25 -18 -19 -20
-31 -2 -21 6 4 8 3 4 -1 -4 -5 -20 -10 -35 -12 -15 -1 -21 0 -15 3 15 7 -1 26
-30 37 -15 6 -16 10 -6 28 10 19 9 21 -5 16 -10 -4 -16 -1 -16 9 0 8 -11 19
-25 24 -14 5 -25 12 -25 15 0 4 5 3 12 -1 7 -4 8 -3 4 4 -4 6 -13 9 -21 5 -8
-3 -15 0 -15 7 0 6 -4 8 -10 5 -5 -3 -17 3 -27 14 -9 11 -21 18 -25 14 -5 -3
-16 3 -24 13 -10 14 -13 15 -9 3 5 -12 0 -16 -19 -15 -14 1 -29 6 -33 10 -5 5
-2 6 6 1 10 -6 12 -4 7 4 -5 7 -10 10 -13 7 -3 -3 -15 -1 -26 5 -14 8 -18 8
-13 0 4 -6 0 -11 -8 -11 -9 0 -16 -6 -16 -12 0 -9 -4 -8 -10 2 -9 13 -11 13
-20 0 -7 -11 -10 -11 -10 -2 0 7 -5 10 -10 7 -6 -4 -7 -12 -3 -18 3 -7 -4 -3
-17 8 -18 15 -22 16 -18 4 4 -9 1 -16 -8 -16 -8 0 -14 4 -14 9 0 5 -4 7 -10 3
-5 -3 -6 -13 -3 -23 5 -14 2 -13 -11 3 -15 17 -17 18 -12 2 3 -10 2 -16 -3
-13 -5 3 -14 -1 -21 -9 -9 -11 -17 -12 -31 -4 -11 5 -19 6 -18 2 4 -21 -2 -33
-16 -33 -8 0 -15 -4 -15 -9 0 -6 -8 -8 -18 -6 -11 2 -19 -3 -19 -10 0 -8 4
-12 8 -9 4 2 10 0 14 -5 3 -6 -3 -8 -14 -6 -10 2 -27 -3 -38 -11 -10 -9 -13
-13 -7 -10 6 3 11 -1 11 -8 0 -8 -6 -12 -13 -9 -6 2 -15 -1 -20 -8 -5 -8 -3
-10 6 -4 9 5 11 4 6 -3 -4 -7 -15 -12 -24 -12 -12 0 -13 -3 -5 -8 8 -5 9 -13
3 -22 -9 -13 -10 -13 -10 0 -1 12 -3 11 -11 -3 -5 -9 -7 -22 -4 -27 3 -6 -2
-10 -12 -10 -14 0 -15 -2 -4 -9 11 -7 10 -11 -5 -20 -11 -6 -14 -11 -9 -11 6
0 3 -5 -5 -10 -13 -8 -13 -10 -1 -10 11 0 10 -4 -5 -16 -10 -8 -13 -13 -6 -9
7 4 12 0 12 -9 0 -9 -6 -13 -14 -10 -17 6 -31 -12 -16 -21 5 -3 10 -11 10 -17
0 -6 -3 -8 -7 -5 -12 12 -31 -14 -25 -35 3 -14 1 -19 -6 -14 -11 7 -17 -13
-13 -38 1 -5 -5 -4 -13 3 -12 10 -14 9 -9 -10 4 -15 3 -20 -5 -15 -8 5 -12 -1
-12 -14 0 -15 -5 -20 -14 -17 -19 8 -28 -3 -15 -19 8 -9 5 -11 -11 -7 -16 4
-19 2 -14 -11 5 -12 2 -15 -12 -9 -12 4 -15 3 -10 -5 4 -7 1 -12 -9 -12 -10 0
-13 -5 -9 -12 4 -7 3 -8 -4 -4 -7 4 -12 3 -12 -3 0 -6 -7 -7 -17 -4 -12 5 -14
3 -8 -8 7 -11 6 -12 -6 -2 -13 10 -19 10 -35 -3 -10 -8 -13 -12 -5 -8 10 5 12
3 6 -5 -5 -9 -10 -10 -18 -2 -14 14 -27 14 -27 0 0 -5 6 -7 13 -3 7 4 8 3 4
-2 -5 -5 -16 -9 -24 -9 -9 0 -17 -8 -19 -18 -2 -15 0 -16 14 -5 13 11 15 10
10 -10 -5 -19 -4 -21 8 -11 9 7 14 8 14 1 0 -6 10 -12 23 -14 12 -2 21 -9 19
-16 -1 -8 2 -11 7 -7 6 3 9 11 7 18 -1 7 -1 9 1 4 3 -4 10 -4 15 -1 7 5 8 2 3
-6 -6 -10 -4 -12 8 -7 12 4 14 2 10 -11 -6 -15 -5 -15 10 -3 11 9 17 10 17 2
0 -6 5 -11 11 -11 5 0 7 6 3 13 -5 7 0 6 11 -3 14 -11 19 -12 22 -3 4 10 8 9
20 -2 15 -16 35 -20 30 -7 -2 6 8 13 16 11 25 -7 47 -7 47 1 0 6 10 1 22 -10
12 -11 28 -18 35 -15 46 18 46 18 39 4 -4 -8 2 -3 14 11 l21 25 -7 -25 -6 -25
22 23 c17 18 25 21 36 11 11 -9 14 -9 14 0 0 7 5 9 10 6 6 -3 10 -2 10 4 0 6
7 7 17 4 12 -5 14 -3 8 8 -7 11 -5 11 10 -1 11 -9 16 -10 11 -2 -6 11 4 16 26
13 4 0 5 9 3 21 -3 15 -1 18 6 11 13 -13 59 6 59 25 0 8 5 10 12 6 8 -5 9 -2
4 11 -6 16 -4 16 11 4 10 -8 14 -9 10 -2 -5 7 1 16 13 23 11 6 20 17 20 25 0
8 5 15 11 15 8 0 7 6 -2 17 -10 11 -10 14 -1 9 17 -10 38 4 21 15 -10 6 -10 9
-2 9 7 0 10 9 8 21 -4 17 -2 19 11 8 12 -10 13 -9 8 6 -6 14 -4 16 6 10 8 -5
11 -4 6 3 -3 6 -1 14 5 17 5 4 8 13 5 21 -3 8 1 14 10 14 10 0 14 6 10 15 -7
20 -1 19 20 -2 17 -17 18 -17 11 1 -6 15 -4 17 13 13 16 -4 19 -2 11 7 -8 9
-6 12 7 11 9 0 23 -4 30 -9 6 -4 17 -4 22 -1 6 3 13 -1 16 -9 3 -9 10 -14 14
-11 4 2 20 -7 36 -21 16 -15 22 -24 13 -21 -9 3 -16 -1 -16 -9 0 -9 7 -13 16
-9 11 3 10 0 -3 -10 -17 -13 -18 -18 -8 -40 7 -15 8 -24 4 -21 -5 3 -8 -18 -6
-46 1 -37 7 -56 20 -66 18 -13 18 -14 0 -28 -14 -10 -16 -14 -5 -14 9 0 14
-11 13 -32 0 -38 13 -61 30 -51 6 4 5 0 -2 -9 -10 -13 -10 -18 -1 -24 8 -5 9
-3 4 6 -5 9 -4 11 3 6 9 -5 9 -13 2 -26 -8 -16 -8 -18 5 -14 10 4 15 0 15 -15
0 -12 6 -21 13 -21 8 0 7 -4 -3 -10 -13 -8 -12 -10 3 -10 10 0 15 -4 12 -10
-3 -5 -1 -10 5 -10 7 0 9 -7 6 -16 -6 -14 -4 -15 9 -4 13 11 16 11 13 -1 -2
-8 -7 -18 -13 -22 -5 -5 1 -5 15 -1 14 3 22 3 17 -2 -4 -4 5 -14 20 -21 25
-11 25 -12 3 -7 -23 6 -23 6 -7 -11 10 -9 24 -14 32 -11 10 3 12 0 8 -11 -5
-12 -2 -14 8 -9 8 4 5 1 -5 -8 -18 -15 -17 -15 12 -11 26 3 32 0 32 -16 0 -10
5 -19 11 -19 5 0 7 4 4 10 -3 6 1 7 10 4 13 -5 13 -9 3 -22 -11 -13 -11 -14 0
-8 7 4 20 2 29 -6 14 -11 16 -11 8 2 -7 12 -4 12 11 -1 10 -9 29 -20 42 -23
12 -4 22 -12 22 -17 0 -5 3 -8 8 -8 21 4 32 -2 26 -13 -6 -10 -4 -10 8 0 13
10 17 10 21 0 4 -10 6 -10 6 1 1 9 8 6 23 -10 13 -15 19 -18 15 -7 -9 25 18
29 42 7 14 -13 21 -15 21 -7 0 9 3 9 10 -2 9 -13 10 -13 10 0 0 9 3 11 8 5 11
-15 32 -17 32 -2 0 8 4 7 10 -3 9 -13 11 -13 20 0 6 10 10 11 10 3 0 -17 18
-16 36 1 8 8 23 12 35 9 17 -5 20 -3 14 7 -5 8 -4 11 3 6 6 -4 10 -12 8 -19
-1 -7 -1 -9 1 -4 3 4 10 4 15 1 6 -4 8 -2 5 3 -4 6 0 14 9 17 8 3 13 2 10 -2
-3 -5 1 -9 9 -9 8 0 11 5 8 10 -4 6 4 8 20 5 18 -4 24 -1 20 9 -4 9 0 11 13 6
12 -5 15 -3 9 6 -5 10 -2 11 13 7 14 -5 27 0 43 16 12 13 19 18 16 12 -3 -6 0
-11 8 -11 8 0 13 3 11 6 -2 3 6 15 17 26 11 11 16 13 12 5 -5 -10 -1 -8 13 4
23 20 30 32 12 21 -16 -10 -11 1 7 16 11 10 14 10 9 2 -4 -7 -2 -13 3 -13 10
0 15 14 12 32 0 4 6 5 14 2 8 -4 17 1 21 10 3 9 10 13 15 10 5 -3 9 0 9 6 0 6
5 8 12 4 7 -4 8 -3 4 4 -4 6 -14 9 -24 6 -9 -3 -7 1 6 8 12 8 19 18 15 22 -4
4 -2 6 6 4 8 -2 17 6 19 17 2 11 9 25 14 30 8 7 9 6 4 -2 -5 -9 -2 -11 8 -7
18 7 21 24 5 24 -7 0 -1 10 12 23 16 14 24 33 24 54 -1 17 2 31 5 31 3 0 12 0
20 1 13 1 13 2 0 11 -12 8 -12 10 -1 10 9 0 11 7 8 21 -4 14 -1 19 7 16 8 -3
12 9 14 37 1 22 2 46 3 51 1 6 -2 19 -6 30 -6 16 -5 17 4 5 9 -12 11 -7 6 23
-3 23 -1 37 6 37 6 0 4 7 -5 15 -11 12 -13 22 -6 40 7 18 6 23 -4 19 -7 -3
-13 2 -13 10 0 8 7 12 16 9 14 -4 14 -3 1 9 -8 7 -16 20 -18 28 -2 8 -9 18
-15 22 -8 5 -8 8 -1 8 6 0 11 7 11 15 0 8 -4 15 -9 15 -4 0 -8 5 -8 11 0 5 6
7 13 3 6 -4 4 2 -7 14 -10 12 -23 19 -28 16 -6 -4 -5 4 2 16 7 12 8 20 2 16
-5 -3 -15 1 -22 9 -7 8 -9 15 -4 15 4 0 3 5 -4 12 -7 7 -12 21 -12 33 0 16 -2
17 -10 5 -8 -12 -10 -9 -10 12 0 26 -30 55 -43 42 -3 -3 -3 5 0 18 4 18 3 20
-6 8 -9 -13 -11 -12 -11 4 0 12 -5 16 -16 12 -8 -3 -12 -2 -9 4 3 6 1 10 -4
10 -6 0 -11 7 -11 16 0 8 -4 12 -10 9 -5 -3 -10 -1 -10 4 0 6 -6 11 -13 11 -7
0 -20 9 -30 20 -14 17 -35 25 -58 22 -4 -1 -5 9 -2 21 3 12 1 18 -4 12 -14
-17 -33 -16 -33 2 0 15 -2 16 -10 3 -9 -14 -14 -7 -11 15 1 6 -6 1 -15 -10
-13 -16 -15 -16 -11 -3 3 10 2 20 -3 23 -6 4 -10 1 -10 -6 0 -8 -4 -8 -12 -1
-7 5 -26 8 -41 6 -20 -2 -27 1 -24 9 3 7 -3 13 -13 13 -11 0 -16 -6 -13 -16 3
-10 -1 -9 -11 4 -12 15 -16 16 -16 5 0 -9 -3 -10 -8 -3 -4 8 -45 11 -118 10
-91 -1 -110 -4 -106 -15z m-681 -66 c0 -8 -4 -12 -9 -9 -4 3 -8 9 -8 15 0 5 4
9 8 9 5 0 9 -7 9 -15z m-432 -764 c-8 -14 -25 -14 -25 0 0 5 5 7 10 4 6 -3 10
-1 10 6 0 7 3 10 6 6 3 -3 3 -10 -1 -16z"/>
<path d="M2208 4703 c7 -3 16 -2 19 1 4 3 -2 6 -13 5 -11 0 -14 -3 -6 -6z"/>
<path d="M5692 4442 c-12 -2 -20 -8 -17 -13 4 -5 2 -9 -4 -9 -6 0 -20 -10 -31
-22 -18 -20 -20 -20 -14 -4 7 19 7 19 -13 0 -11 -10 -18 -22 -16 -26 2 -4 -1
-9 -7 -13 -5 -3 -10 -1 -10 6 0 7 -3 9 -6 6 -4 -4 -1 -13 6 -22 11 -13 10 -14
-4 -9 -11 4 -16 2 -14 -7 2 -8 -3 -13 -11 -11 -12 3 -12 1 0 -14 9 -12 9 -15
2 -10 -7 4 -14 2 -14 -3 -1 -6 -3 -15 -4 -21 -1 -5 -3 -14 -4 -20 0 -5 -6 -9
-13 -7 -15 3 -17 -22 -5 -48 9 -18 9 -19 -7 -6 -14 12 -16 12 -10 -3 4 -9 1
-16 -6 -16 -10 0 -9 -4 0 -16 11 -12 11 -15 -1 -12 -8 2 -13 -3 -11 -11 1 -7
-2 -19 -8 -25 -5 -7 -6 -16 -2 -20 4 -4 0 -6 -8 -4 -10 2 -14 -3 -12 -14 2
-10 -2 -18 -9 -18 -8 0 -7 -5 2 -17 12 -14 12 -16 0 -8 -11 6 -13 4 -8 -8 4
-12 2 -14 -10 -10 -12 5 -15 2 -11 -8 9 -24 -10 -62 -28 -55 -13 5 -14 3 -7
-6 15 -19 12 -50 -4 -44 -8 3 -11 2 -8 -3 3 -5 1 -12 -5 -16 -5 -3 -10 -11
-10 -17 0 -6 7 -5 17 3 12 10 11 5 -4 -17 -18 -24 -20 -34 -10 -44 10 -12 9
-12 -4 -2 -18 13 -30 7 -23 -13 3 -7 0 -16 -6 -20 -8 -5 -8 -11 1 -21 7 -9 8
-14 3 -13 -26 5 -36 -1 -25 -15 9 -11 9 -16 0 -22 -8 -5 -9 -3 -4 6 5 9 4 11
-4 6 -9 -6 -9 -11 1 -24 11 -13 11 -14 0 -8 -9 5 -15 1 -19 -13 -3 -11 -9 -19
-12 -16 -4 2 -8 -2 -8 -10 0 -8 4 -12 9 -9 4 3 8 1 8 -3 0 -5 -9 -14 -21 -21
-17 -11 -19 -16 -7 -29 9 -12 10 -15 1 -9 -12 7 -18 -11 -14 -37 1 -5 -4 -5
-10 -1 -7 4 -10 1 -7 -7 3 -8 -2 -20 -11 -27 -9 -8 -11 -11 -6 -8 6 2 11 -3
11 -13 0 -10 -6 -18 -13 -18 -7 0 -9 5 -6 11 4 6 2 7 -3 3 -12 -12 -12 -30 1
-39 6 -5 3 -8 -7 -8 -9 0 -20 -5 -24 -12 -4 -7 -3 -8 4 -4 18 11 14 -10 -4
-29 -9 -9 -17 -29 -18 -45 0 -21 -4 -26 -13 -18 -9 7 -11 4 -8 -11 2 -12 0
-21 -6 -21 -5 0 -9 -5 -9 -11 0 -5 4 -8 8 -5 4 2 8 -4 8 -14 0 -14 -3 -16 -13
-8 -7 6 -13 9 -14 7 -2 -8 -9 -55 -11 -66 -1 -7 -5 -13 -9 -13 -4 0 -10 6 -13
13 -3 6 -2 -1 1 -17 5 -23 3 -27 -8 -21 -12 7 -12 6 -1 -7 9 -11 10 -18 2 -23
-5 -3 -10 -1 -10 5 0 6 -5 8 -11 5 -6 -5 -4 -12 8 -22 10 -8 12 -12 6 -8 -9 4
-13 -1 -13 -15 0 -14 -4 -19 -12 -14 -7 4 -10 4 -6 -1 4 -4 3 -14 -4 -22 -9
-11 -7 -12 8 -8 17 6 17 5 -1 -7 -11 -7 -21 -22 -23 -33 -2 -11 -9 -24 -16
-30 -7 -5 -11 -16 -8 -23 2 -7 -7 -21 -20 -32 -12 -11 -18 -19 -11 -20 6 0 13
5 15 12 3 7 7 4 12 -7 4 -11 4 -16 0 -13 -8 8 -34 -14 -27 -24 2 -5 -1 -8 -7
-8 -6 0 -8 -4 -5 -10 3 -5 0 -10 -7 -10 -9 0 -9 -3 2 -10 13 -8 13 -10 -1 -10
-9 0 -19 -9 -22 -20 -3 -12 -1 -18 5 -14 5 3 2 -8 -6 -25 -9 -17 -21 -31 -27
-31 -8 0 -8 -4 -1 -13 8 -9 8 -17 0 -27 -8 -12 -9 -12 -4 3 9 28 -1 20 -18
-15 -13 -25 -14 -33 -4 -40 10 -6 10 -8 0 -8 -8 0 -10 -5 -6 -12 6 -10 4 -10
-8 0 -13 11 -15 8 -12 -18 2 -20 -3 -37 -15 -49 -14 -14 -16 -22 -8 -31 9 -8
8 -10 -6 -4 -19 7 -21 -15 -2 -28 6 -4 -1 -8 -14 -8 -18 0 -21 -3 -13 -12 7
-9 5 -19 -8 -35 -9 -12 -20 -20 -23 -17 -3 3 -3 -4 0 -16 4 -13 0 -26 -8 -31
-11 -7 -11 -9 -1 -9 7 0 10 -5 7 -10 -4 -6 -11 -7 -17 -4 -7 5 -9 0 -5 -15 4
-18 3 -20 -8 -11 -12 10 -13 7 -5 -18 7 -26 6 -30 -8 -24 -15 5 -15 4 -3 -11
12 -15 12 -17 -3 -11 -19 7 -21 -7 -3 -25 10 -10 9 -11 -3 -6 -11 4 -16 -1
-17 -16 -1 -12 -6 -25 -11 -28 -5 -3 -12 -19 -16 -34 -4 -16 -11 -25 -17 -21
-8 4 -8 0 0 -14 9 -17 7 -23 -9 -35 -11 -7 -17 -17 -14 -20 4 -4 1 -13 -6 -22
-10 -12 -10 -15 1 -15 12 0 12 -2 0 -9 -8 -5 -11 -16 -8 -24 4 -11 1 -14 -7
-11 -7 3 -16 -2 -19 -10 -4 -9 -1 -13 6 -10 15 5 20 -33 6 -41 -5 -3 -6 2 -3
12 5 15 4 15 -4 3 -7 -9 -7 -19 -2 -26 6 -6 6 -15 2 -19 -4 -5 -1 -5 6 -1 7 4
9 12 6 18 -4 6 -3 8 3 5 6 -4 9 -18 8 -32 -2 -14 1 -25 7 -25 6 0 4 -7 -3 -17
-12 -15 -12 -16 4 -10 16 6 23 -8 18 -37 -1 -5 5 -4 13 4 14 11 16 9 16 -8 0
-12 5 -24 12 -28 7 -5 8 -3 3 7 -8 12 -6 12 8 1 9 -8 21 -11 26 -8 5 4 12 2
16 -4 4 -6 11 -8 16 -5 5 3 6 -1 3 -9 -3 -9 -1 -16 5 -17 45 -3 79 -1 90 5 7
5 18 3 24 -3 9 -9 7 -11 -8 -6 -16 6 -17 5 -5 -4 11 -8 18 -7 25 2 6 7 19 13
30 13 11 0 19 5 17 12 -1 7 5 12 14 12 9 0 12 5 8 12 -6 9 -3 9 9 0 14 -12 16
-11 12 8 -4 19 -2 20 12 8 12 -9 15 -9 9 0 -4 7 -2 12 4 12 7 0 9 7 6 16 -3 8
-2 13 3 10 4 -3 17 4 27 17 16 18 16 19 2 8 -11 -8 -18 -9 -18 -3 0 6 9 16 20
22 12 7 17 16 13 27 -5 13 -2 15 11 10 12 -5 15 -3 9 6 -11 18 -12 37 -2 37 6
0 9 6 7 14 -2 8 6 22 17 30 12 9 15 15 7 16 -10 0 -10 3 0 14 7 8 18 11 23 8
6 -3 4 2 -4 11 -9 11 -10 17 -2 17 6 0 11 5 11 11 0 5 -5 7 -12 3 -7 -5 -8 -3
-4 5 5 7 13 10 20 8 7 -3 12 9 14 31 1 20 9 43 18 53 8 9 14 20 13 25 -4 22 2
34 19 34 24 -1 55 -26 48 -39 -4 -6 2 -19 14 -31 11 -11 17 -20 13 -20 -5 0
-1 -5 7 -10 12 -8 12 -10 1 -10 -9 0 -7 -6 7 -19 12 -10 22 -28 22 -41 0 -15
5 -20 14 -17 10 4 12 0 9 -14 -3 -12 0 -19 8 -19 11 0 11 -2 -1 -10 -11 -7
-11 -10 -2 -10 7 0 11 -4 7 -9 -3 -5 0 -13 6 -17 7 -4 9 -3 5 4 -3 6 -3 13 2
16 5 3 8 -9 8 -27 -1 -24 3 -32 15 -31 11 1 15 -5 12 -17 -3 -12 0 -19 8 -19
11 0 11 -2 -1 -10 -12 -7 -12 -10 -1 -10 7 0 11 -6 8 -15 -4 -8 -1 -17 5 -21
7 -4 8 -3 4 4 -4 7 -2 12 3 12 6 0 11 -13 11 -30 0 -19 5 -30 14 -30 7 0 16
-9 19 -20 3 -13 1 -18 -5 -13 -7 4 -8 1 -2 -8 5 -8 9 -17 9 -21 0 -3 4 -10 9
-15 5 -5 6 -3 2 5 -4 6 -5 12 -2 12 3 0 10 -10 17 -21 9 -17 8 -20 -3 -13 -11
6 -11 5 1 -9 7 -9 17 -15 21 -12 5 3 7 -3 5 -12 -1 -10 1 -22 5 -28 3 -5 7
-20 8 -33 1 -20 -2 -21 -14 -11 -12 10 -13 9 -8 -7 4 -13 3 -15 -3 -6 -5 7
-20 11 -34 10 -15 -2 -23 2 -21 10 3 17 -3 15 -19 -5 -12 -14 -12 -16 0 -8 10
5 12 4 7 -4 -6 -9 -11 -9 -22 0 -8 6 -17 9 -20 7 -3 -3 -20 -2 -39 2 -20 5
-33 4 -29 -1 3 -5 -2 -9 -11 -9 -10 0 -13 5 -9 12 4 7 3 8 -5 4 -6 -4 -26 -9
-44 -12 -25 -3 -29 -1 -17 7 12 9 12 10 -3 5 -10 -3 -23 -6 -28 -6 -6 0 -7 -6
-3 -12 4 -7 -2 -4 -14 6 -12 11 -22 14 -22 8 0 -10 -22 -9 -77 3 -13 3 -23 1
-23 -5 0 -6 5 -8 12 -4 7 5 8 3 4 -5 -6 -9 -12 -9 -24 3 -15 13 -19 12 -39 -4
-12 -9 -20 -20 -18 -24 3 -3 2 -4 -2 -1 -3 3 -12 0 -20 -7 -11 -9 -12 -7 -8 8
5 13 2 12 -7 -4 -8 -12 -18 -19 -23 -15 -4 4 -5 3 -1 -4 4 -7 2 -20 -3 -30
-23 -44 -35 -97 -20 -87 5 3 9 0 9 -5 0 -6 -6 -11 -12 -11 -7 0 -2 -7 10 -16
19 -13 21 -19 11 -30 -10 -12 -8 -16 10 -21 18 -4 20 -8 9 -15 -9 -7 -7 -8 8
-5 15 3 21 0 20 -12 -1 -10 5 -15 16 -13 9 1 20 -3 24 -9 5 -8 3 -9 -7 -4 -12
8 -12 6 0 -8 15 -18 26 -23 16 -7 -3 6 -1 10 5 10 6 0 8 4 5 10 -4 6 1 7 11 3
11 -4 13 -8 6 -11 -19 -6 -14 -18 8 -18 11 0 19 5 17 11 -3 5 6 10 18 10 16 0
20 -4 14 -11 -10 -13 38 -11 49 2 4 4 0 5 -9 2 -9 -4 -16 -1 -16 7 0 10 5 11
18 4 12 -6 20 -5 24 1 5 8 11 7 21 -1 11 -9 17 -9 28 0 11 10 17 7 30 -11 11
-15 16 -18 16 -7 0 11 11 15 44 14 31 0 42 -3 35 -11 -10 -13 38 -11 49 2 4 4
0 5 -9 2 -9 -4 -16 -1 -16 7 0 10 5 11 18 4 12 -6 20 -5 24 1 4 6 12 7 18 3 7
-5 23 -9 37 -9 45 -2 51 -4 45 -13 -3 -6 6 -8 22 -5 16 3 29 9 31 14 2 5 10 6
18 3 7 -3 12 -9 9 -14 -6 -9 35 -3 44 7 3 4 -1 5 -10 2 -9 -4 -16 -1 -16 7 0
10 5 11 16 5 16 -8 23 -10 42 -10 5 0 8 -4 4 -9 -3 -6 6 -8 22 -5 16 3 29 9
31 14 2 5 10 6 18 3 7 -3 12 -9 9 -13 -7 -11 22 -6 32 5 4 4 3 5 -3 2 -6 -3
-11 0 -11 7 0 8 8 11 18 9 10 -3 16 -10 15 -16 -2 -7 -1 -9 1 -4 3 4 10 4 15
1 6 -4 8 -2 5 3 -4 6 0 13 8 17 8 3 15 1 15 -4 0 -5 7 -7 16 -3 13 5 13 7 2
14 -10 7 -9 9 5 9 10 0 16 4 13 9 -4 5 4 7 16 4 19 -4 20 -3 8 6 -13 9 -13 11
2 11 17 0 35 51 23 70 -3 6 0 7 10 4 20 -8 16 18 -5 28 -12 5 -11 7 3 7 10 1
15 6 12 11 -4 6 -10 8 -15 5 -4 -3 -6 4 -3 15 3 12 0 20 -7 20 -9 0 -9 4 1 17
12 14 12 16 0 8 -11 -6 -13 -4 -7 10 6 16 4 16 -11 4 -9 -8 -14 -9 -10 -2 4 6
3 14 -2 17 -5 4 -8 18 -6 32 2 18 -2 24 -11 20 -15 -6 -15 -5 -19 39 -4 46 -4
47 -14 41 -11 -7 -19 12 -16 42 2 21 1 21 -18 5 -19 -17 -20 -17 -8 5 7 13 8
22 2 22 -6 0 -8 6 -5 14 3 8 0 17 -7 22 -8 5 -10 3 -4 -6 5 -9 4 -11 -4 -6 -9
6 -9 11 1 24 11 13 10 15 -4 9 -10 -3 -20 -1 -24 5 -4 7 -3 8 4 4 7 -4 12 -2
12 3 0 6 -5 11 -11 11 -8 0 -7 6 2 17 10 11 10 14 2 9 -8 -4 -13 -2 -13 4 0 6
-5 8 -12 4 -8 -5 -7 0 2 11 10 13 11 16 2 11 -10 -6 -13 -2 -10 14 2 14 -3 25
-12 27 -13 4 -13 3 0 -7 13 -10 13 -11 0 -7 -8 2 -14 11 -12 21 2 9 -3 16 -10
16 -9 0 -9 3 2 10 10 6 11 10 3 10 -7 0 -13 7 -13 16 0 8 -4 12 -10 9 -6 -4
-9 4 -7 17 1 15 -3 22 -12 20 -12 -3 -12 0 -1 13 11 13 10 15 -3 9 -12 -4 -14
-1 -10 17 4 13 2 20 -3 16 -6 -3 -16 4 -24 16 -12 20 -12 21 3 9 12 -11 17
-11 23 0 4 7 4 10 -1 6 -10 -9 -35 17 -35 37 0 10 -5 13 -12 9 -6 -4 -8 -3 -5
4 10 15 -3 43 -17 35 -6 -4 -4 2 4 12 8 10 10 16 3 12 -13 -8 -37 26 -26 37 3
3 2 6 -4 6 -7 0 -9 10 -5 23 5 18 3 20 -9 10 -12 -10 -14 -7 -13 15 0 15 -7
34 -18 43 -20 18 -25 45 -6 33 7 -5 8 -3 4 5 -5 7 -14 10 -22 7 -12 -5 -12 -2
-3 15 8 15 8 19 0 15 -10 -6 -16 13 -12 37 1 5 -2 6 -7 3 -5 -3 -14 6 -21 20
-14 31 -14 37 -1 29 16 -10 11 1 -7 16 -15 12 -16 12 -8 -1 6 -12 5 -12 -5 -3
-7 6 -12 24 -12 39 0 18 -7 28 -20 32 -15 4 -16 7 -7 13 11 6 7 16 -16 41 -17
18 -21 25 -10 16 20 -16 20 -15 19 28 -1 43 8 57 20 32 4 -7 4 -3 2 10 -2 12
2 28 9 36 11 10 11 16 2 26 -9 10 -9 11 2 5 11 -6 13 -3 9 13 -4 15 -2 19 8
15 8 -3 11 -10 7 -16 -4 -6 -1 -7 6 -3 9 6 8 12 -4 26 -12 14 -13 20 -4 26 8
5 10 3 4 -6 -6 -9 -4 -11 4 -5 7 4 11 16 8 26 -3 11 -2 17 3 14 4 -3 11 2 14
11 9 22 8 26 -6 18 -7 -5 -8 -3 -4 5 5 7 14 10 21 7 9 -3 12 2 10 15 -2 10 0
19 5 19 4 0 7 8 5 18 -1 9 7 25 19 35 11 10 14 15 6 11 -8 -4 -4 6 10 22 15
17 18 23 6 14 -18 -14 -19 -14 -8 6 6 12 8 24 5 28 -3 3 1 6 9 6 10 0 14 8 13
24 -2 13 4 33 13 43 16 18 21 30 26 61 1 8 7 17 13 20 5 4 9 15 7 25 -3 20 6
22 27 5 11 -11 12 -11 3 0 -14 16 -6 55 8 46 6 -4 5 2 -1 14 -13 24 -14 35 -3
29 12 -8 27 16 26 40 -1 12 2 20 6 18 9 -5 23 21 25 47 1 10 8 24 14 32 7 8
10 20 6 26 -3 5 2 10 12 10 10 0 14 4 8 8 -5 4 -11 13 -13 21 -2 11 0 12 11 3
15 -13 14 -13 21 43 2 21 8 30 20 29 20 -2 20 1 0 20 -13 14 -14 16 0 16 8 0
18 5 22 12 5 7 2 9 -7 4 -8 -4 -3 2 11 15 l25 22 -23 -8 c-23 -7 -24 -7 -5 12
10 11 21 18 26 16 4 -2 7 1 7 6 0 6 -6 11 -12 11 -7 0 -2 7 10 16 18 13 21 19
11 30 -10 12 -9 13 6 8 15 -6 16 -4 6 14 -6 12 -7 23 -2 26 5 4 12 0 14 -6 3
-8 6 -6 6 5 1 11 6 15 13 11 7 -4 8 -3 4 5 -4 6 -13 8 -19 4 -7 -4 -7 0 1 10
8 9 10 22 6 28 -4 7 -3 10 2 7 5 -3 15 0 21 8 9 8 9 15 2 19 -7 5 -7 11 0 19
6 7 8 16 4 20 -4 4 3 9 15 13 12 3 22 10 22 15 0 5 -6 6 -12 2 -9 -6 -9 -3 0
9 8 9 10 22 6 28 -5 9 -2 10 9 6 9 -3 19 -1 23 5 4 6 3 8 -4 4 -6 -3 -13 -2
-17 4 -3 5 1 10 9 10 10 0 13 7 11 21 -3 14 0 19 9 16 10 -4 12 0 9 14 -3 12
0 19 8 19 11 0 11 2 0 9 -11 7 -12 13 -4 23 17 20 17 21 5 45 -8 14 -9 24 -2
28 17 10 11 28 -6 21 -15 -6 -15 -4 -3 11 13 15 12 16 -6 9 -15 -5 -17 -4 -8
5 9 9 8 15 -3 27 -8 8 -13 21 -10 29 3 8 1 11 -4 8 -6 -3 -10 -1 -10 4 0 6 -7
11 -16 11 -8 0 -13 4 -10 8 2 4 -5 14 -16 21 -18 11 -20 11 -15 -3 6 -14 3
-15 -13 -6 -11 6 -20 13 -20 16 0 3 6 2 13 -2 9 -5 9 -4 1 5 -16 18 -64 24
-64 9 0 -8 -3 -9 -8 -3 -7 11 -48 14 -90 7z m236 -87 c-3 -3 -9 2 -12 12 -6
14 -5 15 5 6 7 -7 10 -15 7 -18z m-403 -124 c3 -5 2 -12 -3 -15 -5 -3 -9 1 -9
9 0 17 3 19 12 6z m-322 -2031 c-3 -3 -10 2 -16 11 -7 9 -19 14 -27 12 -13 -4
-13 -3 0 6 10 7 19 5 31 -7 9 -9 14 -19 12 -22z m25 -55 c-3 -3 -9 2 -12 12
-6 14 -5 15 5 6 7 -7 10 -15 7 -18z m302 -890 c0 -2 -6 -5 -13 -8 -8 -3 -14 1
-14 8 0 7 6 11 14 8 7 -3 13 -6 13 -8z m160 0 c0 -2 -6 -5 -13 -8 -8 -3 -14 1
-14 8 0 7 6 11 14 8 7 -3 13 -6 13 -8z"/>
<path d="M2145 4160 c3 -5 11 -10 16 -10 6 0 7 5 4 10 -3 6 -11 10 -16 10 -6
0 -7 -4 -4 -10z"/>
<path d="M1397 4070 c7 -8 20 -15 29 -16 9 -1 13 1 9 4 -4 4 -10 7 -13 7 -4 0
-14 4 -22 9 -12 7 -13 6 -3 -4z"/>
<path d="M1450 4060 c0 -5 5 -10 11 -10 5 0 7 5 4 10 -3 6 -8 10 -11 10 -2 0
-4 -4 -4 -10z"/>
<path d="M3386 4034 c-5 -14 -4 -15 9 -4 17 14 19 20 6 20 -5 0 -12 -7 -15
-16z"/>
<path d="M1826 3741 c-8 -7 -27 -14 -43 -15 -15 -1 -34 -5 -42 -10 -10 -6 -12
-6 -6 3 5 10 2 9 -13 0 -12 -7 -19 -16 -16 -20 2 -4 -1 -11 -7 -15 -8 -5 -9
-3 -4 6 6 9 2 10 -16 5 -13 -4 -28 -12 -34 -17 -6 -6 -3 -7 10 -3 18 6 18 5 3
-5 -10 -6 -24 -10 -30 -9 -25 3 -39 -1 -34 -10 3 -5 -1 -14 -8 -20 -9 -8 -16
-8 -20 -2 -4 5 -17 -1 -32 -14 -16 -15 -32 -21 -42 -18 -15 6 -15 4 -4 -9 11
-14 11 -16 0 -14 -7 1 -19 5 -25 9 -9 5 -11 3 -7 -6 3 -8 -2 -20 -11 -27 -8
-7 -15 -9 -15 -5 0 3 -12 -3 -26 -14 -15 -11 -30 -18 -35 -15 -5 3 -6 -2 -3
-10 3 -9 1 -16 -5 -16 -6 0 -11 5 -11 11 0 5 -5 7 -10 4 -8 -5 -8 -11 0 -20 9
-11 7 -12 -11 -8 -17 5 -21 3 -17 -9 5 -11 0 -14 -19 -10 -18 3 -25 0 -30 -17
-3 -11 -10 -18 -16 -14 -6 4 -8 0 -4 -11 4 -9 3 -15 -2 -11 -5 3 -22 -8 -37
-24 -23 -25 -31 -28 -43 -18 -12 10 -14 8 -9 -11 4 -12 3 -20 -1 -18 -10 6
-25 -5 -40 -29 -11 -18 -11 -18 -5 5 6 24 6 24 -9 5 -8 -11 -13 -24 -10 -29 4
-5 1 -6 -6 -1 -13 8 -54 -28 -44 -39 4 -3 1 -6 -6 -6 -7 0 -9 -5 -5 -12 5 -8
0 -7 -11 2 -13 10 -16 11 -11 2 5 -9 1 -15 -12 -19 -12 -3 -18 -11 -15 -19 3
-9 -1 -12 -14 -10 -14 3 -19 -1 -19 -17 1 -16 -4 -21 -16 -19 -13 2 -18 -4
-18 -19 0 -18 -2 -19 -15 -9 -13 11 -14 10 -9 -5 5 -12 4 -16 -3 -12 -13 8
-26 -20 -16 -36 4 -7 -2 -5 -12 3 -11 9 -16 10 -11 2 4 -7 1 -15 -8 -18 -9 -3
-16 -13 -16 -21 0 -8 -4 -11 -10 -8 -5 3 -10 1 -10 -5 0 -6 -15 -25 -32 -42
-18 -17 -27 -28 -20 -24 6 4 12 2 12 -3 0 -6 -4 -11 -10 -11 -5 0 -9 -5 -7
-12 1 -7 -7 -12 -17 -13 -11 0 -21 -7 -23 -15 -4 -13 -3 -13 7 0 10 13 11 12
6 -3 -3 -10 -6 -21 -6 -24 0 -3 -6 0 -14 6 -11 9 -15 8 -21 -6 -5 -10 -9 -25
-9 -33 -1 -8 -7 -14 -13 -13 -7 2 -12 0 -11 -5 3 -13 -14 -42 -22 -37 -5 3 -6
-4 -3 -15 5 -19 -5 -26 -31 -21 -5 1 -3 -6 5 -15 8 -10 9 -15 3 -11 -6 3 -18
-3 -27 -14 -9 -10 -12 -19 -6 -19 5 0 7 -5 4 -11 -4 -6 -12 -8 -19 -6 -8 3
-11 -5 -10 -24 1 -16 -2 -26 -7 -23 -5 3 -9 1 -9 -5 0 -6 -8 -8 -18 -5 -15 5
-15 4 -2 -6 11 -9 12 -13 2 -17 -6 -2 -10 -9 -6 -14 5 -8 -10 -13 -29 -10 -5
1 -6 -3 -2 -9 3 -6 11 -7 17 -4 7 5 8 2 4 -5 -5 -7 -14 -10 -22 -7 -12 4 -12
2 -4 -14 9 -16 8 -20 -5 -20 -8 0 -15 -7 -15 -16 0 -9 -5 -12 -12 -8 -8 5 -9
2 -5 -10 4 -10 7 -20 7 -22 0 -3 5 -2 12 2 6 4 8 3 4 -4 -3 -6 -15 -9 -25 -7
-15 3 -18 -1 -13 -17 3 -14 1 -19 -6 -14 -8 5 -10 1 -5 -10 4 -12 3 -15 -5
-10 -8 5 -10 1 -5 -10 4 -12 3 -15 -5 -10 -8 5 -10 1 -5 -10 5 -13 3 -15 -8
-9 -12 8 -12 6 -1 -8 12 -14 11 -16 -5 -13 -15 3 -18 -2 -17 -35 1 -22 -3 -42
-9 -46 -6 -3 -7 -1 -3 5 4 7 3 12 -2 12 -16 0 -22 -13 -11 -27 9 -10 8 -13 -5
-13 -9 0 -16 -5 -16 -11 0 -5 4 -8 8 -5 5 3 9 -1 9 -9 0 -8 -4 -12 -9 -9 -4 3
-8 1 -8 -5 0 -6 -8 -8 -18 -5 -14 5 -14 4 -2 -4 12 -9 12 -13 -3 -30 -13 -15
-14 -21 -4 -32 7 -8 8 -11 1 -7 -7 4 -14 0 -18 -8 -3 -8 0 -15 7 -16 7 0 3 -4
-8 -9 -11 -5 -14 -9 -7 -9 6 -1 12 -6 12 -12 0 -5 -4 -8 -9 -5 -11 7 -33 -18
-24 -27 3 -4 0 -14 -8 -24 -8 -9 -9 -14 -2 -10 13 8 12 -18 -2 -30 -4 -4 -5
-2 -1 4 5 8 2 11 -7 7 -7 -2 -14 -11 -14 -19 0 -8 5 -11 11 -8 6 4 5 -1 -3
-10 -7 -9 -10 -17 -5 -17 4 0 -1 -7 -12 -16 -10 -8 -13 -13 -6 -9 15 8 11 -33
-5 -43 -6 -4 -9 -15 -7 -25 2 -12 -2 -17 -11 -13 -11 4 -12 0 -4 -21 8 -21 7
-24 -4 -15 -11 9 -13 4 -10 -27 2 -26 -2 -41 -11 -44 -9 -4 -13 -19 -12 -40 1
-20 -2 -33 -5 -31 -4 2 -10 -3 -13 -12 -3 -8 -2 -13 2 -10 5 3 8 -5 7 -17 -1
-12 -8 -22 -16 -21 -11 1 -14 -9 -14 -35 1 -41 -4 -63 -14 -57 -7 4 -11 -18
-11 -61 0 -13 -6 -23 -13 -23 -8 0 -7 -3 2 -9 13 -8 13 -12 0 -27 -8 -10 -9
-15 -3 -11 6 3 11 0 11 -9 0 -10 -7 -12 -21 -8 -17 4 -18 3 -6 -5 8 -6 11 -11
5 -12 -5 0 -1 -4 10 -9 17 -7 17 -9 3 -9 -18 -1 -21 -12 -22 -73 0 -16 -2 -28
-5 -28 -4 0 -6 -25 -6 -56 0 -44 4 -58 19 -66 14 -8 17 -7 12 1 -4 6 -3 11 3
11 5 0 13 -5 16 -10 5 -8 11 -8 20 0 10 8 14 7 18 -2 4 -10 6 -10 6 1 1 11 4
11 16 1 9 -7 15 -8 15 -2 0 12 33 10 42 -3 5 -6 8 -5 8 3 0 9 5 10 17 3 10 -5
26 -5 40 0 16 6 23 5 23 -4 0 -8 4 -7 10 3 9 13 11 13 20 0 7 -11 10 -11 10
-2 0 9 5 10 17 3 10 -5 26 -5 40 0 16 6 23 5 23 -4 0 -8 4 -7 11 3 8 11 12 12
16 2 2 -6 10 -9 16 -5 19 12 37 12 37 1 0 -7 5 -6 14 1 11 9 15 9 19 -1 4 -10
6 -10 6 1 1 11 4 11 16 1 9 -7 15 -8 15 -2 0 12 33 10 42 -3 5 -6 8 -5 8 4 0
11 3 11 15 1 8 -7 15 -9 15 -4 0 5 11 9 25 9 14 0 25 -4 25 -10 0 -5 5 -3 10
5 9 13 11 13 20 0 8 -12 10 -12 10 -1 0 11 3 11 15 1 8 -7 15 -8 15 -3 0 10
46 10 57 0 3 -4 12 -2 20 4 10 9 13 8 13 -2 0 -11 2 -11 10 1 9 13 11 13 20 0
6 -10 10 -11 10 -3 0 9 7 10 24 3 15 -5 27 -5 35 3 8 8 11 8 11 -2 0 -11 3
-11 16 0 13 10 17 10 25 -2 7 -11 9 -11 9 0 0 11 3 11 15 1 9 -7 15 -8 15 -2
0 12 33 10 42 -3 5 -6 8 -5 8 4 0 11 3 11 15 1 8 -7 15 -8 15 -3 0 11 29 11
48 -1 7 -4 12 -2 12 5 0 8 4 8 13 1 9 -8 21 -6 42 8 17 11 25 20 19 20 -7 0
-14 7 -17 14 -4 11 -1 13 10 9 13 -5 13 -3 5 14 -8 15 -8 23 1 33 10 10 9 11
-3 5 -13 -8 -13 -6 -2 7 10 13 10 17 0 21 -10 4 -10 7 1 18 12 12 13 12 6 0
-6 -10 -4 -12 5 -6 10 6 9 11 -5 21 -10 8 -16 17 -12 20 4 4 15 1 24 -7 16
-12 17 -12 7 1 -17 23 -23 59 -12 67 7 4 8 1 3 -8 -5 -8 -4 -10 0 -6 12 10 15
38 4 31 -13 -8 -11 10 4 25 10 11 9 12 -2 6 -10 -6 -12 -4 -5 6 13 21 16 51 4
44 -6 -3 -7 1 -4 9 3 9 11 13 16 10 6 -4 5 3 -1 15 -9 16 -9 21 0 21 8 0 7 5
-2 17 -12 15 -12 16 3 10 21 -8 20 12 -2 30 -13 11 -13 12 2 7 13 -4 15 -1 11
15 -3 14 -1 21 8 21 12 0 12 2 1 9 -11 7 -11 11 2 24 12 12 13 17 3 21 -9 5
-9 7 1 12 6 3 12 10 12 15 0 6 -4 8 -8 5 -14 -9 -7 33 8 47 12 10 12 9 2 -5
-9 -11 -10 -18 -2 -23 6 -4 10 -3 9 2 -1 4 0 10 1 13 7 18 7 39 0 35 -11 -7
-7 22 5 32 4 4 5 2 0 -6 -5 -10 -4 -12 3 -7 9 5 9 13 2 27 -8 14 -7 19 1 19 8
0 8 4 -1 15 -11 13 -10 14 3 9 12 -4 15 0 13 20 -2 14 1 23 5 20 5 -3 9 2 9
11 0 10 -5 13 -12 9 -10 -6 -10 -5 -1 8 7 8 9 19 5 23 -4 5 -1 5 6 1 7 -4 12
-1 12 8 0 8 6 17 13 19 8 4 8 6 -2 6 -11 1 -10 5 5 17 10 8 13 13 7 9 -8 -4
-13 0 -13 10 0 10 5 13 12 9 8 -5 9 -2 5 10 -6 14 -3 17 9 12 14 -5 15 -4 5 8
-10 11 -7 18 11 31 15 12 17 15 6 12 -24 -8 -23 -2 5 24 12 12 15 18 7 14 -10
-6 -9 -2 3 12 12 14 15 23 7 28 -5 3 -7 11 -4 17 4 6 10 5 15 -3 6 -10 9 -6
10 14 3 48 4 52 21 51 9 -1 14 4 12 11 -3 7 -1 16 5 20 6 3 11 11 11 16 0 6
-5 7 -12 3 -7 -4 -8 -3 -4 4 4 7 14 12 22 12 8 0 14 7 14 16 0 8 4 12 10 9 6
-4 7 1 3 11 -5 13 -3 15 7 9 10 -6 12 -4 7 9 -4 10 -1 19 8 22 8 4 15 16 15
28 0 17 2 19 11 6 9 -12 10 -11 6 7 -3 14 0 21 7 20 6 -1 10 6 10 15 -1 10 1
17 5 16 19 -2 31 3 26 11 -3 6 4 15 15 21 11 6 18 15 15 19 -2 5 3 8 13 7 10
0 16 6 16 17 -1 9 4 17 11 17 20 0 46 30 39 42 -5 7 -2 8 6 3 10 -6 12 -4 6
11 -7 18 -6 18 12 -1 11 -11 29 -26 40 -34 17 -12 19 -18 9 -30 -10 -12 -9
-13 2 -6 11 6 13 4 7 -10 -5 -15 -4 -16 9 -5 13 10 15 9 15 -9 0 -11 5 -21 11
-21 5 0 7 -4 4 -10 -3 -5 1 -10 9 -10 9 0 16 -7 16 -16 0 -9 5 -12 13 -8 7 5
6 0 -3 -11 -12 -15 -12 -17 -1 -10 11 6 13 4 8 -8 -4 -11 -2 -14 9 -10 9 3 14
-2 14 -15 0 -12 9 -23 21 -27 17 -6 19 -9 8 -16 -10 -6 -11 -9 -1 -9 6 0 12
-7 12 -15 0 -8 5 -15 11 -15 5 0 7 -4 4 -10 -3 -6 -1 -10 5 -10 6 0 8 -5 4
-12 -6 -10 -4 -10 8 0 14 11 16 10 13 -13 -2 -18 2 -25 11 -21 7 3 16 1 19 -4
4 -6 -1 -10 -9 -10 -9 0 -16 -5 -16 -11 0 -5 4 -7 10 -4 5 3 20 -1 32 -11 16
-11 17 -15 6 -11 -26 9 -22 0 15 -35 17 -18 31 -38 29 -44 -1 -7 6 -18 16 -26
10 -7 18 -23 17 -35 -1 -18 1 -20 12 -12 9 8 13 8 14 0 1 -6 3 -15 4 -21 1 -5
3 -16 4 -22 2 -7 7 -4 12 7 8 17 9 16 6 -7 -3 -19 0 -28 10 -28 8 0 11 -4 8
-10 -3 -5 -2 -10 4 -10 5 0 12 6 15 13 3 6 3 2 0 -10 -3 -14 -1 -23 6 -23 6 0
8 -4 5 -10 -3 -5 2 -10 12 -10 15 0 16 -2 3 -10 -12 -8 -12 -10 5 -10 15 0 17
-2 6 -9 -9 -6 -10 -11 -2 -15 6 -4 15 -5 20 -1 6 3 8 -4 6 -16 -3 -15 0 -19
10 -15 8 3 14 2 13 -2 -3 -16 15 -41 26 -35 6 4 4 -2 -4 -12 -14 -17 -13 -18
8 -13 20 6 22 4 10 -10 -10 -12 -10 -14 0 -8 7 4 12 2 12 -4 0 -7 7 -10 15 -6
8 3 21 -4 29 -16 9 -12 19 -17 27 -13 7 5 10 4 6 -2 -6 -10 3 -17 28 -23 6 -1
16 -7 24 -13 12 -10 13 -9 6 3 -8 13 -7 13 8 1 14 -11 17 -11 17 0 0 8 6 6 16
-7 8 -10 12 -13 8 -5 -5 10 -3 13 8 8 9 -3 20 -1 26 5 6 6 12 6 17 -3 5 -7 4
-10 -2 -6 -6 4 -16 1 -21 -6 -9 -11 -1 -13 39 -11 27 0 53 5 57 9 4 5 1 5 -7
0 -10 -5 -12 -4 -7 4 4 6 12 9 17 6 5 -4 9 0 9 7 0 10 2 10 9 -1 5 -7 14 -10
20 -7 6 4 11 0 11 -9 0 -9 5 -13 10 -10 6 4 8 11 5 16 -3 5 1 6 9 3 10 -4 16
-1 16 7 1 8 6 6 13 -6 7 -12 17 -20 22 -20 26 3 71 19 84 29 12 8 13 8 7 -2
-5 -9 -3 -13 5 -11 28 3 50 -1 45 -9 -3 -5 1 -9 9 -9 18 0 19 9 3 27 -11 12
-10 12 2 3 8 -5 36 -9 62 -9 25 1 44 -2 42 -6 -3 -4 3 -8 13 -9 10 0 31 -2 46
-3 16 -1 31 3 34 8 4 5 1 6 -7 1 -9 -5 -11 -4 -6 4 4 6 12 9 17 6 5 -4 9 0 9
7 0 10 2 10 9 -1 5 -8 18 -12 30 -8 12 3 19 1 15 -4 -3 -5 3 -9 13 -10 10 0
31 -2 46 -3 16 -1 31 3 34 8 4 5 1 6 -7 1 -9 -5 -11 -4 -6 4 4 6 12 9 17 6 5
-4 9 0 9 7 0 10 2 10 9 -1 5 -7 14 -10 20 -7 6 4 11 0 11 -9 0 -9 5 -13 10
-10 6 4 8 11 5 16 -3 5 1 6 9 3 10 -4 16 -1 16 7 1 8 6 6 13 -6 7 -12 17 -20
22 -20 26 3 71 19 84 29 12 8 13 8 7 -2 -5 -9 -3 -13 5 -11 28 3 50 -1 45 -9
-3 -5 1 -9 9 -9 18 0 19 9 3 26 -11 11 -10 12 2 5 24 -14 143 -16 134 -3 -4 8
-3 9 4 5 6 -4 8 -14 5 -23 -5 -13 -3 -13 21 2 20 13 25 14 21 3 -4 -10 2 -13
20 -13 14 1 28 5 32 10 5 4 1 4 -7 0 -13 -8 -13 -7 -1 8 14 17 26 24 17 9 -2
-4 4 -13 14 -20 16 -9 18 -9 14 2 -3 8 0 17 7 22 7 4 10 3 6 -3 -4 -6 4 -11
18 -10 16 0 22 4 18 11 -4 6 0 5 9 -2 12 -9 18 -10 23 -2 5 7 11 8 19 1 7 -6
17 -6 26 -1 21 14 43 12 34 -2 -4 -7 -3 -8 5 -4 6 4 9 11 6 16 -3 4 3 14 12
21 12 10 14 10 9 2 -4 -7 -2 -13 3 -13 6 0 11 5 11 10 0 6 3 9 8 9 20 -3 32 2
32 16 0 8 6 15 14 15 8 0 18 5 22 12 4 7 3 8 -4 4 -7 -4 -12 -2 -12 3 0 6 8
11 18 12 10 0 12 3 4 6 -6 2 -9 9 -6 14 4 6 10 6 18 0 8 -7 12 -5 12 9 0 10
-4 16 -8 14 -4 -3 -5 2 -2 10 3 9 11 13 16 10 6 -4 5 3 -1 15 -8 14 -8 21 -1
21 7 0 7 7 -1 22 -10 18 -9 20 5 15 16 -6 16 -5 1 15 -18 26 -20 42 -4 32 8
-5 8 -1 0 14 -6 10 -8 29 -6 41 3 16 -8 30 -42 56 -25 19 -42 35 -38 35 5 0
17 -7 27 -17 10 -9 18 -11 18 -5 0 6 -13 16 -30 24 -16 7 -30 19 -30 27 0 8
-3 11 -7 8 -3 -4 -12 1 -20 11 -8 9 -12 11 -8 5 4 -9 1 -11 -9 -7 -9 3 -14 9
-12 13 4 6 -4 9 -58 14 -13 1 -22 5 -19 10 2 4 -1 7 -6 7 -6 0 -11 -3 -11 -7
0 -5 -11 -8 -24 -8 -13 0 -22 4 -18 9 3 5 -2 7 -11 3 -9 -3 -19 -2 -23 4 -4 6
-14 3 -27 -8 -12 -10 -17 -12 -12 -4 6 11 4 13 -9 8 -10 -4 -15 -3 -11 3 3 6
2 10 -4 10 -5 0 -11 -6 -14 -12 -3 -9 -10 -7 -21 7 -13 16 -15 17 -10 3 7 -21
-6 -24 -24 -6 -10 10 -15 10 -22 -2 -5 -8 -12 -11 -16 -7 -4 4 -14 1 -22 -6
-13 -10 -14 -9 -7 2 6 11 4 13 -9 8 -10 -4 -15 -3 -11 3 3 6 2 10 -4 10 -5 0
-11 -6 -14 -12 -3 -9 -10 -7 -21 7 -13 16 -15 17 -10 3 7 -21 -6 -24 -24 -6
-10 10 -15 10 -22 -2 -5 -8 -12 -11 -16 -7 -4 4 -14 1 -22 -6 -13 -10 -14 -9
-7 2 6 11 4 13 -9 8 -10 -4 -15 -3 -11 3 3 6 2 10 -4 10 -5 0 -11 -6 -14 -12
-3 -9 -10 -7 -21 7 -13 16 -15 17 -10 3 7 -21 -6 -24 -24 -6 -10 10 -15 10
-22 -2 -5 -8 -12 -11 -16 -7 -4 4 -14 1 -22 -6 -13 -10 -14 -9 -7 2 6 11 4 13
-9 8 -10 -4 -15 -3 -11 3 3 6 2 10 -4 10 -5 0 -11 -6 -14 -12 -3 -9 -10 -7
-21 7 -13 16 -15 17 -10 3 7 -21 -6 -24 -24 -6 -10 10 -15 10 -22 -2 -5 -8
-12 -11 -16 -7 -4 4 -14 1 -22 -6 -13 -10 -14 -9 -7 2 6 11 4 13 -9 8 -10 -4
-15 -3 -11 3 3 6 2 10 -4 10 -5 0 -11 -6 -14 -12 -3 -9 -10 -7 -21 7 -13 16
-15 17 -10 3 7 -21 -6 -24 -24 -6 -10 10 -15 10 -22 -2 -5 -8 -12 -11 -16 -7
-4 4 -14 1 -22 -6 -13 -10 -14 -9 -7 2 6 11 4 13 -9 8 -10 -4 -15 -3 -11 3 3
6 2 10 -4 10 -5 0 -11 -6 -14 -12 -3 -9 -10 -7 -21 7 -13 16 -15 17 -10 3 7
-21 -6 -24 -24 -6 -9 9 -15 10 -20 2 -10 -14 -52 -11 -79 6 -18 11 -20 17 -10
29 10 12 9 14 -5 8 -10 -3 -20 -1 -24 5 -4 7 -3 8 4 4 8 -5 12 0 12 13 0 12
-5 21 -11 21 -8 0 -8 4 0 14 9 10 7 17 -6 27 -16 13 -17 12 -4 -3 9 -12 10
-18 2 -18 -10 0 -15 14 -12 34 1 4 -4 15 -11 24 -10 12 -10 14 0 8 6 -4 12 -2
12 3 0 6 -10 11 -22 11 -21 0 -21 0 -2 16 10 8 14 13 8 10 -7 -3 -17 1 -24 9
-11 13 -10 15 6 9 18 -5 18 -5 1 9 -14 11 -15 16 -5 20 8 3 6 6 -6 6 -11 1
-16 6 -13 15 3 8 1 17 -6 20 -8 3 -7 5 2 5 11 1 10 5 -5 17 -10 8 -12 13 -4 9
9 -4 8 -1 -3 8 -12 10 -15 17 -7 22 8 5 7 12 -4 24 -9 10 -13 21 -9 24 3 4 1
7 -5 7 -16 0 -43 58 -30 66 7 5 8 2 3 -6 -5 -9 -4 -11 4 -6 16 10 -6 39 -23
29 -8 -4 -7 -2 1 7 13 14 7 40 -9 40 -6 0 -4 -8 3 -17 13 -16 12 -17 -4 -4
-11 9 -14 18 -8 25 11 14 6 45 -10 60 -9 8 -9 5 0 -14 11 -23 11 -24 -3 -6
-11 14 -13 23 -5 32 7 8 7 14 -1 19 -5 3 -10 15 -10 26 0 10 -5 19 -11 19 -5
0 -7 -5 -3 -12 4 -7 3 -8 -4 -4 -8 4 -8 15 -2 31 8 20 6 25 -6 25 -13 0 -14 3
-5 14 9 10 7 17 -6 27 -17 13 -17 13 -3 -6 14 -19 14 -19 -3 -6 -11 9 -14 18
-9 23 6 6 1 26 -12 51 -13 23 -22 54 -21 69 1 20 -2 24 -11 17 -9 -8 -11 -5
-7 10 3 13 1 21 -7 21 -7 0 -10 8 -7 20 3 11 1 20 -5 20 -5 0 -7 4 -4 9 4 5 0
12 -6 14 -10 4 -9 8 2 17 13 10 13 11 -2 6 -10 -3 -20 -1 -23 4 -4 6 -1 10 4
10 6 0 11 5 11 10 0 6 -6 10 -14 10 -8 0 -18 5 -22 12 -4 7 -3 8 4 4 7 -4 12
-1 12 8 0 9 -5 16 -11 16 -6 0 -9 14 -8 33 2 21 -1 31 -9 29 -11 -2 -16 11
-13 31 0 4 -3 7 -9 7 -5 0 -10 5 -10 10 0 6 3 9 8 8 4 -2 8 2 10 7 1 6 -4 10
-10 10 -7 1 -12 7 -10 14 1 7 -2 10 -7 7 -5 -3 -12 1 -15 10 -4 10 -2 13 7 8
6 -4 0 4 -15 19 -16 14 -28 30 -28 34 0 4 7 -1 15 -11 8 -11 15 -15 15 -9 0
18 -29 36 -46 29 -13 -5 -14 -3 -6 7 7 8 7 18 2 27 -7 11 -10 12 -10 2 0 -10
-3 -10 -15 2 -8 8 -15 19 -15 24 0 5 -8 16 -17 23 -17 13 -17 13 -3 -5 15 -19
14 -19 -12 -2 -16 10 -28 26 -28 35 0 14 -2 14 -10 1 -8 -12 -10 -10 -11 10 0
23 -1 23 -9 5 -6 -15 -9 -16 -9 -4 -1 9 -10 24 -22 35 -11 10 -19 14 -17 9 2
-6 -1 -10 -7 -10 -5 0 -9 3 -8 7 2 4 -5 4 -14 1 -9 -4 -14 -2 -11 3 4 5 -9 9
-28 8 -19 -1 -32 2 -29 6 3 4 -2 11 -11 14 -12 5 -15 2 -10 -11 6 -14 4 -15
-5 -6 -6 6 -17 9 -24 6 -7 -2 -15 4 -18 14 -5 17 -5 17 -6 0 -1 -17 -2 -17
-18 -2 -16 16 -17 16 -30 -1 -11 -15 -17 -13 -15 6 1 12 -39 5 -52 -9z m-1136
-881 c0 -5 -5 -10 -11 -10 -5 0 -7 5 -4 10 3 6 8 10 11 10 2 0 4 -4 4 -10z
m2005 -280 c3 -5 2 -10 -4 -10 -5 0 -13 5 -16 10 -3 6 -2 10 4 10 5 0 13 -4
16 -10z m1474 -534 c9 -10 8 -15 -2 -19 -8 -3 -13 3 -13 14 0 23 0 23 15 5z
m-1329 -360 c0 -2 -6 -9 -14 -15 -11 -9 -16 -9 -22 0 -4 7 -3 9 4 5 6 -3 13
-2 17 4 6 10 15 14 15 6z m640 0 c0 -2 -6 -9 -14 -15 -11 -9 -16 -9 -22 0 -4
7 -3 9 4 5 6 -3 13 -2 17 4 6 10 15 14 15 6z m-830 -10 c0 -2 -7 -7 -16 -10
-8 -3 -12 -2 -9 4 6 10 25 14 25 6z m480 0 c0 -2 -7 -7 -16 -10 -8 -3 -12 -2
-9 4 6 10 25 14 25 6z m160 0 c0 -2 -7 -7 -16 -10 -8 -3 -12 -2 -9 4 6 10 25
14 25 6z m-3224 -234 c-17 -16 -18 -16 -5 5 7 12 15 20 18 17 3 -2 -3 -12 -13
-22z"/>
<path d="M2670 3651 c0 -5 7 -12 16 -15 14 -5 15 -4 4 9 -14 17 -20 19 -20 6z"/>
<path d="M1390 3539 c0 -5 5 -7 10 -4 6 3 10 8 10 11 0 2 -4 4 -10 4 -5 0 -10
-5 -10 -11z"/>
<path d="M1216 3413 c-6 -14 -5 -15 5 -6 7 7 10 15 7 18 -3 3 -9 -2 -12 -12z"/>
<path d="M1177 3383 c-4 -3 -7 -11 -7 -17 0 -6 5 -5 12 2 6 6 9 14 7 17 -3 3
-9 2 -12 -2z"/>
<path d="M4875 2749 c-4 -6 -5 -12 -2 -15 2 -3 7 2 10 11 7 17 1 20 -8 4z"/>
<path d="M2670 2640 c0 -5 5 -10 11 -10 5 0 7 5 4 10 -3 6 -8 10 -11 10 -2 0
-4 -4 -4 -10z"/>
<path d="M5046 1947 c3 -10 9 -15 12 -12 3 3 0 11 -7 18 -10 9 -11 8 -5 -6z"/>
<path d="M2396 1727 c3 -10 9 -15 12 -12 3 3 0 11 -7 18 -10 9 -11 8 -5 -6z"/>
<path d="M4674 1729 c-4 -7 -3 -9 4 -5 5 3 13 0 15 -6 4 -9 6 -10 6 -1 1 17
-16 25 -25 12z"/>
<path d="M2886 1659 c2 -4 13 -7 24 -6 23 2 17 10 -10 12 -10 1 -17 -2 -14 -6z"/>
<path d="M3004 1658 c10 -6 22 -6 26 -2 5 5 -3 10 -18 11 -22 1 -24 0 -8 -9z"/>
<path d="M3526 1659 c2 -4 13 -7 24 -6 23 2 17 10 -10 12 -10 1 -17 -2 -14 -6z"/>
<path d="M3644 1658 c10 -6 22 -6 26 -2 5 5 -3 10 -18 11 -22 1 -24 0 -8 -9z"/>
<path d="M5450 1640 c0 -5 5 -10 11 -10 5 0 7 5 4 10 -3 6 -8 10 -11 10 -2 0
-4 -4 -4 -10z"/>
<path d="M4055 1601 c6 -11 4 -13 -8 -8 -10 3 -17 2 -17 -3 0 -5 -7 -7 -15 -4
-9 4 -15 1 -15 -7 0 -8 -6 -5 -15 7 -14 18 -14 18 -10 -3 2 -16 0 -20 -10 -16
-8 2 -27 -4 -42 -15 -15 -10 -40 -19 -54 -18 -18 1 -25 -3 -22 -11 3 -7 -2
-13 -11 -13 -9 0 -21 -11 -27 -24 -8 -16 -17 -22 -27 -19 -9 4 -13 2 -9 -4 4
-6 0 -14 -9 -17 -9 -3 -14 -13 -11 -20 4 -10 0 -14 -12 -11 -10 2 -18 -3 -18
-10 0 -8 5 -12 11 -9 6 3 -2 -6 -18 -19 -20 -18 -24 -26 -15 -30 8 -3 4 -6 -9
-6 -13 -1 -20 -5 -17 -11 4 -6 10 -8 14 -6 4 3 8 -1 8 -8 0 -8 -6 -12 -12 -10
-6 3 -12 -2 -12 -11 0 -9 5 -14 12 -11 6 2 20 -9 31 -25 10 -16 23 -29 27 -29
5 0 6 3 4 8 -3 4 6 7 19 7 14 0 24 -6 25 -15 0 -10 3 -8 9 5 5 11 9 14 9 8 1
-7 12 -12 25 -11 14 1 22 6 20 10 -3 4 -1 8 5 8 5 0 12 -6 15 -12 5 -10 7 -10
12 0 3 6 10 12 15 12 6 0 7 -4 4 -10 -3 -5 0 -10 9 -10 8 0 17 6 19 13 4 10 6
10 6 0 1 -7 6 -13 12 -13 5 0 8 4 4 9 -3 5 0 13 6 17 8 4 9 3 5 -4 -4 -7 -2
-12 4 -12 6 0 8 -6 5 -12 -4 -7 3 -2 14 12 12 14 19 18 16 10 -4 -11 2 -16 20
-18 14 -1 24 2 21 6 -3 5 1 9 9 9 8 0 12 -4 9 -9 -9 -14 9 -9 30 10 16 13 18
14 8 1 -11 -14 -9 -16 13 -16 14 0 22 4 18 10 -4 6 -1 7 8 1 20 -12 40 -14 33
-3 -3 5 -1 9 5 9 5 0 12 -6 15 -12 5 -10 7 -10 12 0 3 6 10 12 15 12 6 0 7 -4
4 -10 -3 -5 0 -10 9 -10 8 0 17 6 19 13 4 10 6 10 6 0 1 -7 6 -13 12 -13 5 0
8 4 4 9 -3 5 0 13 6 17 8 4 9 3 5 -4 -4 -7 -2 -12 4 -12 6 0 8 -6 5 -12 -4 -7
0 -5 8 5 16 20 32 23 21 5 -4 -7 -4 -10 0 -6 5 4 20 2 34 -3 21 -8 23 -7 14 4
-9 11 -8 14 3 14 8 0 15 -5 15 -10 0 -6 10 -2 22 9 17 14 19 15 10 2 -12 -15
-11 -17 7 -15 13 1 20 6 16 14 -3 11 0 11 16 2 15 -8 19 -8 15 0 -4 6 -3 11 3
11 5 0 8 9 6 20 -2 11 1 23 7 26 6 4 8 2 4 -4 -3 -6 -1 -14 6 -18 7 -4 10 -4
6 1 -4 4 -3 14 4 22 6 8 7 13 2 12 -21 -4 -26 2 -13 18 10 11 10 14 2 9 -8 -4
-13 -2 -13 4 0 6 -5 8 -12 4 -9 -6 -9 -3 0 9 12 14 11 16 -9 12 -17 -4 -20 -2
-11 7 15 15 16 31 0 22 -7 -5 -9 -2 -5 9 4 11 2 14 -9 10 -9 -3 -14 1 -14 14
0 24 -40 63 -63 63 -9 0 -17 6 -17 14 0 8 -7 17 -16 20 -15 6 -15 4 -3 -11 13
-17 13 -17 -7 0 -11 9 -25 14 -29 10 -5 -5 -4 -1 3 8 10 14 9 16 -12 14 -19
-2 -23 1 -19 12 5 13 2 13 -14 5 -15 -8 -25 -7 -41 4 -12 8 -27 12 -34 8 -7
-5 -8 -3 -3 6 5 9 2 10 -14 5 -14 -4 -21 -2 -21 7 0 10 -2 10 -9 -1 -6 -9 -10
-10 -16 -2 -5 9 -10 9 -21 0 -11 -9 -18 -8 -31 2 -14 12 -16 12 -8 0z m344
-125 c8 -10 9 -16 1 -21 -5 -3 -10 0 -10 9 0 8 -6 17 -12 19 -8 4 -9 6 -2 6 6
1 17 -5 23 -13z"/>
<path d="M5845 1600 c-3 -5 -1 -10 4 -10 6 0 11 5 11 10 0 6 -2 10 -4 10 -3 0
-8 -4 -11 -10z"/>
<path d="M3900 1561 c0 -7 -5 -9 -12 -5 -7 5 -8 3 -3 -5 5 -9 10 -10 18 -2 6
6 8 14 4 18 -4 3 -7 1 -7 -6z"/>
<path d="M4870 1356 c0 -2 7 -7 16 -10 8 -3 12 -2 9 4 -6 10 -25 14 -25 6z"/>
<path d="M3701 1253 c7 -12 15 -20 18 -17 3 2 -3 12 -13 22 -17 16 -18 16 -5
-5z"/>
<path d="M5145 1249 c-9 -14 -2 -20 14 -10 8 6 9 11 3 15 -6 3 -14 1 -17 -5z"/>
<path d="M5189 1243 c-12 -16 -12 -17 2 -6 9 7 20 9 24 5 5 -4 5 -1 1 6 -9 16
-11 15 -27 -5z"/>
<path d="M5385 1249 c-9 -14 -2 -20 14 -10 8 6 9 11 3 15 -6 3 -14 1 -17 -5z"/>
<path d="M5255 1240 c-2 -3 5 -7 16 -7 10 -1 19 2 19 6 0 9 -29 10 -35 1z"/>
<path d="M5425 1240 c-3 -6 1 -7 9 -4 18 7 21 14 7 14 -6 0 -13 -4 -16 -10z"/>
</g>
</svg>
